<svg xmlns="http://www.w3.org/2000/svg" version="1.1" xmlns:xlink="http://www.w3.org/1999/xlink" xmlns:svgjs="http://svgjs.dev/svgjs" width="2000" height="1247" viewBox="0 0 2000 1247"><g transform="matrix(1,0,0,1,-1.2121212121212466,0.504858299595071)"><svg viewBox="0 0 396 247" data-background-color="#003366" preserveAspectRatio="xMidYMid meet" height="1247" width="2000" xmlns="http://www.w3.org/2000/svg" xmlns:xlink="http://www.w3.org/1999/xlink"><g id="tight-bounds" transform="matrix(1,0,0,1,0.2400000000000091,-0.09999999999999432)"><svg viewBox="0 0 395.52 247.2" height="247.2" width="395.52"><g><svg></svg></g><g><svg viewBox="0 0 395.52 247.2" height="247.2" width="395.52"><g transform="matrix(1,0,0,1,140.0287966652437,47.215199999999996)"><svg viewBox="0 0 115.4624066695126 152.7696" height="152.7696" width="115.4624066695126"><g><svg viewBox="0 0 115.4624066695126 152.7696" height="152.7696" width="115.4624066695126"><g><svg viewBox="0 0 115.4624066695126 152.7696" height="152.7696" width="115.4624066695126"><g><svg viewBox="0 0 115.4624066695126 152.7696" height="152.7696" width="115.4624066695126"><g id="textblocktransform"><svg viewBox="0 0 115.4624066695126 152.7696" height="152.7696" width="115.4624066695126" id="textblock"><g><svg viewBox="0 0 115.4624066695126 152.7696" height="152.7696" width="115.4624066695126"><g transform="matrix(1,0,0,1,0,0)"><svg width="115.4624066695126" viewBox="0.5800000000000001 -37.27 31.43 41.27" height="152.7696" data-palette-color="#ffffff"><path d="M13.47-29.88L8.44-29.88 8.44-17.16 13.75-17.16Q17.82-17.16 19.74-18.77 21.66-20.37 21.66-23.66 21.66-26.95 19.72-28.41 17.77-29.88 13.47-29.88L13.47-29.88ZM15.37-13.83L8.44-13.83 8.44 0 4.58 0 4.58-33.27 13.7-33.27Q19.79-33.27 22.72-30.93 25.66-28.59 25.66-23.86L25.66-23.86Q25.66-17.24 18.98-14.94L18.98-14.94 28.01 0 23.43 0 15.37-13.83Z" opacity="1" transform="matrix(1,0,0,1,0,0)" fill="#ffffff" class="wordmark-text-0" data-fill-palette-color="primary" id="text-0"></path></svg></g></svg></g></svg></g></svg></g></svg></g></svg></g></svg></g><g><path d="M0 123.6c0-68.262 55.338-123.6 123.6-123.6 32.109 0 61.359 12.244 83.335 32.317l-8.697 0c-20.328-16.642-46.317-26.627-74.638-26.626-65.119 0-117.909 52.79-117.909 117.909 0 65.119 52.79 117.909 117.909 117.909 28.321 0 54.31-9.985 74.638-26.626h8.697c-21.976 20.074-51.225 32.317-83.335 32.317-68.262 0-123.6-55.338-123.6-123.6z" fill="#ffffff" stroke="transparent" data-fill-palette-color="tertiary"></path></g></svg></g><defs></defs></svg><rect width="395.52" height="247.2" fill="none" stroke="none" visibility="hidden"></rect></g></svg></g></svg>